<svg xmlns="http://www.w3.org/2000/svg" version="1.1" xmlns:xlink="http://www.w3.org/1999/xlink" xmlns:svgjs="http://svgjs.dev/svgjs" viewBox="0 0 600 600"><path d="M258.73431396484375,352.562744140625C199.7646484375,327.06587982177734,97.90794372558594,247.96024322509766,108.89120483398438,214.48744201660156C119.87446594238281,181.01464080810547,265.6642150878906,126.22907257080078,324.6338806152344,151.72593688964844C383.6035461425781,177.2228012084961,473.6924591064453,333.9958267211914,462.7091979980469,367.4686279296875C451.72593688964844,400.9414291381836,317.7039794921875,378.05960845947266,258.73431396484375,352.562744140625C199.7646484375,327.06587982177734,97.90794372558594,247.96024322509766,108.89120483398438,214.48744201660156" fill="#da5b2e" stroke-width="0" stroke="hsl(340, 45%, 30%)"></path><path d="M210.87870829085773 306.27613576501886C151.90904276351398 280.7792714461712 50.05233805159992 201.67363484949152 61.035599159998355 168.20083364099543C72.01886026839679 134.72803243249933 217.8086094139046 79.94246419519465 276.77827494124836 105.4393285140423C335.7479404685921 130.93619283288996 425.8368534324593 287.70921834558527 414.85359232406086 321.18201955408136C403.8703312156624 354.65482076257746 269.8483738182015 331.7730000838665 210.87870829085773 306.27613576501886C151.90904276351398 280.7792714461712 50.05233805159992 201.67363484949152 61.035599159998355 168.20083364099543 " fill-opacity="1" fill="none" opacity="1" stroke-opacity="1" stroke-width="6" stroke="#e6ce52" transform="matrix(1,0,0,1,75,75)"></path></svg>